solid selfie-sensor-bottom
facet normal 0.9238795325112865 -0.3826834323650908 0.0
  outer loop
    vertex 39.808748116271474 17.90780810623774 1.599999999999997
    vertex 39.35919621500064 16.822493809199088 4.599999999999997
    vertex 39.35919621500064 16.822493809199088 1.599999999999997
  endloop
endfacet
facet normal 0.9238795325112865 -0.3826834323650908 0.0
  outer loop
    vertex 39.35919621500064 16.822493809199088 4.599999999999997
    vertex 39.808748116271474 17.90780810623774 1.599999999999997
    vertex 39.808748116271474 17.90780810623774 4.599999999999997
  endloop
endfacet
facet normal 0.9914448613738108 -0.13052619222004933 0.0
  outer loop
    vertex 39.96208189797066 19.072493809199088 1.599999999999997
    vertex 39.808748116271474 17.90780810623774 4.599999999999997
    vertex 39.808748116271474 17.90780810623774 1.599999999999997
  endloop
endfacet
facet normal 0.9914448613738108 -0.13052619222004933 0.0
  outer loop
    vertex 39.808748116271474 17.90780810623774 4.599999999999997
    vertex 39.96208189797066 19.072493809199088 1.599999999999997
    vertex 39.96208189797066 19.072493809199088 4.599999999999997
  endloop
endfacet
facet normal 0.9914448613738107 0.130526192220049 0.0
  outer loop
    vertex 39.808748116271474 20.237179512160434 1.599999999999997
    vertex 39.96208189797066 19.072493809199088 4.599999999999997
    vertex 39.96208189797066 19.072493809199088 1.599999999999997
  endloop
endfacet
facet normal 0.9914448613738107 0.130526192220049 0.0
  outer loop
    vertex 39.96208189797066 19.072493809199088 4.599999999999997
    vertex 39.808748116271474 20.237179512160434 1.599999999999997
    vertex 39.808748116271474 20.237179512160434 4.599999999999997
  endloop
endfacet
facet normal 0.9238795325112865 0.3826834323650908 0.0
  outer loop
    vertex 39.35919621500064 21.322493809199088 1.599999999999997
    vertex 39.808748116271474 20.237179512160434 4.599999999999997
    vertex 39.808748116271474 20.237179512160434 1.599999999999997
  endloop
endfacet
facet normal 0.9238795325112865 0.3826834323650908 0.0
  outer loop
    vertex 39.808748116271474 20.237179512160434 4.599999999999997
    vertex 39.35919621500064 21.322493809199088 1.599999999999997
    vertex 39.35919621500064 21.322493809199088 4.599999999999997
  endloop
endfacet
facet normal 0.7933533402912365 0.6087614290087189 0.0
  outer loop
    vertex 38.64406241331013 22.254474324538553 1.599999999999997
    vertex 39.35919621500064 21.322493809199088 4.599999999999997
    vertex 39.35919621500064 21.322493809199088 1.599999999999997
  endloop
endfacet
facet normal 0.7933533402912365 0.6087614290087189 0.0
  outer loop
    vertex 39.35919621500064 21.322493809199088 4.599999999999997
    vertex 38.64406241331013 22.254474324538553 1.599999999999997
    vertex 38.64406241331013 22.254474324538553 4.599999999999997
  endloop
endfacet
facet normal 0.608761429008718 0.7933533402912372 0.0
  outer loop
    vertex 37.71208189797066 22.969608126229062 4.599999999999997
    vertex 38.64406241331013 22.254474324538553 1.599999999999997
    vertex 37.71208189797066 22.969608126229062 1.599999999999997
  endloop
endfacet
facet normal 0.608761429008718 0.7933533402912372 0.0
  outer loop
    vertex 38.64406241331013 22.254474324538553 1.599999999999997
    vertex 37.71208189797066 22.969608126229062 4.599999999999997
    vertex 38.64406241331013 22.254474324538553 4.599999999999997
  endloop
endfacet
facet normal 0.3826834323650887 0.9238795325112874 0.0
  outer loop
    vertex 36.626767600932006 23.419160027499895 4.599999999999997
    vertex 37.71208189797066 22.969608126229062 1.599999999999997
    vertex 36.626767600932006 23.419160027499895 1.599999999999997
  endloop
endfacet
facet normal 0.3826834323650887 0.9238795325112874 0.0
  outer loop
    vertex 37.71208189797066 22.969608126229062 1.599999999999997
    vertex 36.626767600932006 23.419160027499895 4.599999999999997
    vertex 37.71208189797066 22.969608126229062 4.599999999999997
  endloop
endfacet
facet normal 0.13052619222005202 0.9914448613738105 0.0
  outer loop
    vertex 35.46208189797066 23.572493809199088 4.599999999999997
    vertex 36.626767600932006 23.419160027499895 1.599999999999997
    vertex 35.46208189797066 23.572493809199088 1.599999999999997
  endloop
endfacet
facet normal 0.13052619222005202 0.9914448613738105 0.0
  outer loop
    vertex 36.626767600932006 23.419160027499895 1.599999999999997
    vertex 35.46208189797066 23.572493809199088 4.599999999999997
    vertex 36.626767600932006 23.419160027499895 4.599999999999997
  endloop
endfacet
facet normal -0.13052619222005138 0.9914448613738106 0.0
  outer loop
    vertex 34.29739619500932 23.419160027499895 4.599999999999997
    vertex 35.46208189797066 23.572493809199088 1.599999999999997
    vertex 34.29739619500932 23.419160027499895 1.599999999999997
  endloop
endfacet
facet normal -0.13052619222005138 0.9914448613738106 0.0
  outer loop
    vertex 35.46208189797066 23.572493809199088 1.599999999999997
    vertex 34.29739619500932 23.419160027499895 4.599999999999997
    vertex 35.46208189797066 23.572493809199088 4.599999999999997
  endloop
endfacet
facet normal -0.3826834323650908 0.9238795325112865 0.0
  outer loop
    vertex 33.21208189797066 22.969608126229062 4.599999999999997
    vertex 34.29739619500932 23.419160027499895 1.599999999999997
    vertex 33.21208189797066 22.969608126229062 1.599999999999997
  endloop
endfacet
facet normal -0.3826834323650908 0.9238795325112865 0.0
  outer loop
    vertex 34.29739619500932 23.419160027499895 1.599999999999997
    vertex 33.21208189797066 22.969608126229062 4.599999999999997
    vertex 34.29739619500932 23.419160027499895 4.599999999999997
  endloop
endfacet
facet normal -0.6087614290087219 0.7933533402912343 0.0
  outer loop
    vertex 32.2801013826312 22.25447432453855 4.599999999999997
    vertex 33.21208189797066 22.969608126229062 1.599999999999997
    vertex 32.2801013826312 22.25447432453855 1.599999999999997
  endloop
endfacet
facet normal -0.6087614290087219 0.7933533402912343 0.0
  outer loop
    vertex 33.21208189797066 22.969608126229062 1.599999999999997
    vertex 32.2801013826312 22.25447432453855 4.599999999999997
    vertex 33.21208189797066 22.969608126229062 4.599999999999997
  endloop
endfacet
facet normal -0.0 -1.0 -0.0
  outer loop
    vertex 111.0 0.0 10.6
    vertex 0.0 0.0 0.0
    vertex 111.0 0.0 0.0
  endloop
endfacet
facet normal -0.0 -1.0 -0.0
  outer loop
    vertex 0.0 0.0 0.0
    vertex 111.0 0.0 10.6
    vertex 0.0 0.0 10.6
  endloop
endfacet
facet normal -0.0 1.0 0.0
  outer loop
    vertex 0.0 25.999999999999996 10.6
    vertex 111.0 25.999999999999996 0.0
    vertex 0.0 25.999999999999996 0.0
  endloop
endfacet
facet normal -0.0 1.0 0.0
  outer loop
    vertex 111.0 25.999999999999996 0.0
    vertex 0.0 25.999999999999996 10.6
    vertex 111.0 25.999999999999996 10.6
  endloop
endfacet
facet normal 0.0 -1.0 0.0
  outer loop
    vertex 109.0 24.0 10.6
    vertex 1.9999999999999998 24.0 1.5999999999999999
    vertex 109.0 24.0 1.5999999999999999
  endloop
endfacet
facet normal 0.0 -1.0 0.0
  outer loop
    vertex 1.9999999999999998 24.0 1.5999999999999999
    vertex 109.0 24.0 10.6
    vertex 1.9999999999999998 24.0 10.6
  endloop
endfacet
facet normal -6.259271398178743e-17 1.0 1.342549885972106e-15
  outer loop
    vertex 1.9999999999999998 1.9999999999999991 10.6
    vertex 109.0 2.000000000000019 1.5999999999999999
    vertex 1.9999999999999998 2.000000000000019 1.5999999999999999
  endloop
endfacet
facet normal -6.259271398178743e-17 1.0 1.342549885972106e-15
  outer loop
    vertex 109.0 2.000000000000019 1.5999999999999999
    vertex 1.9999999999999998 1.9999999999999991 10.6
    vertex 109.0 1.9999999999999996 10.6
  endloop
endfacet
facet normal -0.9238795325112867 0.38268343236508984 0.0
  outer loop
    vertex 31.564967580940692 21.322493809199084 4.599999999999997
    vertex 31.11541567966986 20.237179512160427 1.599999999999997
    vertex 31.11541567966986 20.237179512160427 4.599999999999997
  endloop
endfacet
facet normal -0.9238795325112867 0.38268343236508984 0.0
  outer loop
    vertex 31.11541567966986 20.237179512160427 1.599999999999997
    vertex 31.564967580940692 21.322493809199084 4.599999999999997
    vertex 31.564967580940692 21.322493809199084 1.599999999999997
  endloop
endfacet
facet normal -0.9914448613738107 0.13052619222004963 0.0
  outer loop
    vertex 31.11541567966986 20.237179512160427 4.599999999999997
    vertex 30.96208189797067 19.072493809199088 1.599999999999997
    vertex 30.96208189797067 19.072493809199088 4.599999999999997
  endloop
endfacet
facet normal -0.9914448613738107 0.13052619222004963 0.0
  outer loop
    vertex 30.96208189797067 19.072493809199088 1.599999999999997
    vertex 31.11541567966986 20.237179512160427 4.599999999999997
    vertex 31.11541567966986 20.237179512160427 1.599999999999997
  endloop
endfacet
facet normal -0.9914448613738108 -0.13052619222004933 -0.0
  outer loop
    vertex 30.96208189797067 19.072493809199088 4.599999999999997
    vertex 31.11541567966986 17.90780810623774 1.599999999999997
    vertex 31.11541567966986 17.90780810623774 4.599999999999997
  endloop
endfacet
facet normal -0.9914448613738108 -0.13052619222004933 -0.0
  outer loop
    vertex 31.11541567966986 17.90780810623774 1.599999999999997
    vertex 30.96208189797067 19.072493809199088 4.599999999999997
    vertex 30.96208189797067 19.072493809199088 1.599999999999997
  endloop
endfacet
facet normal -0.9238795325112867 -0.38268343236508984 -0.0
  outer loop
    vertex 31.11541567966986 17.90780810623774 4.599999999999997
    vertex 31.564967580940692 16.822493809199084 1.599999999999997
    vertex 31.564967580940692 16.822493809199084 4.599999999999997
  endloop
endfacet
facet normal -0.9238795325112867 -0.38268343236508984 -0.0
  outer loop
    vertex 31.564967580940692 16.822493809199084 1.599999999999997
    vertex 31.11541567966986 17.90780810623774 4.599999999999997
    vertex 31.11541567966986 17.90780810623774 1.599999999999997
  endloop
endfacet
facet normal -0.7933533402912357 -0.60876142900872 -0.0
  outer loop
    vertex 31.564967580940692 16.822493809199084 4.599999999999997
    vertex 32.2801013826312 15.890513293859623 1.599999999999997
    vertex 32.2801013826312 15.890513293859623 4.599999999999997
  endloop
endfacet
facet normal -0.7933533402912357 -0.60876142900872 -0.0
  outer loop
    vertex 32.2801013826312 15.890513293859623 1.599999999999997
    vertex 31.564967580940692 16.822493809199084 4.599999999999997
    vertex 31.564967580940692 16.822493809199084 1.599999999999997
  endloop
endfacet
facet normal -0.6087614290087203 -0.7933533402912354 -0.0
  outer loop
    vertex 33.21208189797066 15.175379492169114 4.599999999999997
    vertex 32.2801013826312 15.890513293859623 1.599999999999997
    vertex 33.21208189797066 15.175379492169114 1.599999999999997
  endloop
endfacet
facet normal -0.6087614290087203 -0.7933533402912354 -0.0
  outer loop
    vertex 32.2801013826312 15.890513293859623 1.599999999999997
    vertex 33.21208189797066 15.175379492169114 4.599999999999997
    vertex 32.2801013826312 15.890513293859623 4.599999999999997
  endloop
endfacet
facet normal -0.382683432365089 -0.9238795325112872 -0.0
  outer loop
    vertex 34.29739619500933 14.72582759089828 4.599999999999997
    vertex 33.21208189797066 15.175379492169114 1.599999999999997
    vertex 34.29739619500933 14.72582759089828 1.599999999999997
  endloop
endfacet
facet normal -0.382683432365089 -0.9238795325112872 -0.0
  outer loop
    vertex 33.21208189797066 15.175379492169114 1.599999999999997
    vertex 34.29739619500933 14.72582759089828 4.599999999999997
    vertex 33.21208189797066 15.175379492169114 4.599999999999997
  endloop
endfacet
facet normal -0.13052619222005202 -0.9914448613738105 -0.0
  outer loop
    vertex 35.46208189797066 14.572493809199086 4.599999999999997
    vertex 34.29739619500933 14.72582759089828 1.599999999999997
    vertex 35.46208189797066 14.572493809199086 1.599999999999997
  endloop
endfacet
facet normal -0.13052619222005202 -0.9914448613738105 -0.0
  outer loop
    vertex 34.29739619500933 14.72582759089828 1.599999999999997
    vertex 35.46208189797066 14.572493809199086 4.599999999999997
    vertex 34.29739619500933 14.72582759089828 4.599999999999997
  endloop
endfacet
facet normal 0.13052619222005138 -0.9914448613738106 0.0
  outer loop
    vertex 36.62676760093201 14.72582759089828 4.599999999999997
    vertex 35.46208189797066 14.572493809199086 1.599999999999997
    vertex 36.62676760093201 14.72582759089828 1.599999999999997
  endloop
endfacet
facet normal 0.13052619222005138 -0.9914448613738106 0.0
  outer loop
    vertex 35.46208189797066 14.572493809199086 1.599999999999997
    vertex 36.62676760093201 14.72582759089828 4.599999999999997
    vertex 35.46208189797066 14.572493809199086 4.599999999999997
  endloop
endfacet
facet normal 0.3826834323650908 -0.9238795325112865 0.0
  outer loop
    vertex 37.71208189797067 15.175379492169114 4.599999999999997
    vertex 36.62676760093201 14.72582759089828 1.599999999999997
    vertex 37.71208189797067 15.175379492169114 1.599999999999997
  endloop
endfacet
facet normal 0.3826834323650908 -0.9238795325112865 0.0
  outer loop
    vertex 36.62676760093201 14.72582759089828 1.599999999999997
    vertex 37.71208189797067 15.175379492169114 4.599999999999997
    vertex 36.62676760093201 14.72582759089828 4.599999999999997
  endloop
endfacet
facet normal 0.6087614290087203 -0.7933533402912354 0.0
  outer loop
    vertex 38.64406241331013 15.890513293859623 4.599999999999997
    vertex 37.71208189797067 15.175379492169114 1.599999999999997
    vertex 38.64406241331013 15.890513293859623 1.599999999999997
  endloop
endfacet
facet normal 0.6087614290087203 -0.7933533402912354 0.0
  outer loop
    vertex 37.71208189797067 15.175379492169114 1.599999999999997
    vertex 38.64406241331013 15.890513293859623 4.599999999999997
    vertex 37.71208189797067 15.175379492169114 4.599999999999997
  endloop
endfacet
facet normal 0.7933533402912365 -0.6087614290087189 0.0
  outer loop
    vertex 39.35919621500064 16.822493809199088 1.599999999999997
    vertex 38.64406241331013 15.890513293859623 4.599999999999997
    vertex 38.64406241331013 15.890513293859623 1.599999999999997
  endloop
endfacet
facet normal 0.7933533402912365 -0.6087614290087189 0.0
  outer loop
    vertex 38.64406241331013 15.890513293859623 4.599999999999997
    vertex 39.35919621500064 16.822493809199088 1.599999999999997
    vertex 39.35919621500064 16.822493809199088 4.599999999999997
  endloop
endfacet
facet normal -0.7933533402912357 0.60876142900872 0.0
  outer loop
    vertex 32.2801013826312 22.25447432453855 4.599999999999997
    vertex 31.564967580940692 21.322493809199084 1.599999999999997
    vertex 31.564967580940692 21.322493809199084 4.599999999999997
  endloop
endfacet
facet normal -0.7933533402912357 0.60876142900872 0.0
  outer loop
    vertex 31.564967580940692 21.322493809199084 1.599999999999997
    vertex 32.2801013826312 22.25447432453855 4.599999999999997
    vertex 32.2801013826312 22.25447432453855 1.599999999999997
  endloop
endfacet
facet normal 0.0 0.0 1.0
  outer loop
    vertex 31.11541567966986 17.90780810623774 4.599999999999997
    vertex 31.11541567966986 20.237179512160427 4.599999999999997
    vertex 30.96208189797067 19.072493809199088 4.599999999999997
  endloop
endfacet
facet normal 0.0 0.0 1.0
  outer loop
    vertex 31.11541567966986 20.237179512160427 4.599999999999997
    vertex 31.11541567966986 17.90780810623774 4.599999999999997
    vertex 31.564967580940692 16.822493809199084 4.599999999999997
  endloop
endfacet
facet normal 0.0 0.0 1.0
  outer loop
    vertex 31.11541567966986 20.237179512160427 4.599999999999997
    vertex 31.564967580940692 16.822493809199084 4.599999999999997
    vertex 31.564967580940692 21.322493809199084 4.599999999999997
  endloop
endfacet
facet normal 0.0 0.0 1.0
  outer loop
    vertex 31.564967580940692 21.322493809199084 4.599999999999997
    vertex 31.564967580940692 16.822493809199084 4.599999999999997
    vertex 32.2801013826312 15.890513293859623 4.599999999999997
  endloop
endfacet
facet normal 0.0 0.0 1.0
  outer loop
    vertex 31.564967580940692 21.322493809199084 4.599999999999997
    vertex 32.2801013826312 15.890513293859623 4.599999999999997
    vertex 32.2801013826312 22.25447432453855 4.599999999999997
  endloop
endfacet
facet normal 0.0 0.0 1.0
  outer loop
    vertex 32.2801013826312 22.25447432453855 4.599999999999997
    vertex 32.2801013826312 15.890513293859623 4.599999999999997
    vertex 33.21208189797066 15.175379492169114 4.599999999999997
  endloop
endfacet
facet normal 0.0 0.0 1.0
  outer loop
    vertex 32.2801013826312 22.25447432453855 4.599999999999997
    vertex 33.21208189797066 15.175379492169114 4.599999999999997
    vertex 32.754020188333605 19.284535279638813 4.599999999999992
  endloop
endfacet
facet normal 0.0 0.0 1.0
  outer loop
    vertex 32.754020188333605 19.284535279638813 4.599999999999992
    vertex 33.21208189797066 15.175379492169114 4.599999999999997
    vertex 32.83920562261093 18.63748766688251 4.599999999999992
  endloop
endfacet
facet normal 0.0 0.0 1.0
  outer loop
    vertex 32.83920562261093 18.63748766688251 4.599999999999992
    vertex 33.21208189797066 15.175379492169114 4.599999999999997
    vertex 33.088956678872506 18.034535279638813 4.599999999999992
  endloop
endfacet
facet normal 0.0 0.0 1.0
  outer loop
    vertex 33.088956678872506 18.034535279638813 4.599999999999992
    vertex 33.21208189797066 15.175379492169114 4.599999999999997
    vertex 33.486253235367236 17.516768326672445 4.599999999999992
  endloop
endfacet
facet normal 0.0 0.0 1.0
  outer loop
    vertex 33.486253235367236 17.516768326672445 4.599999999999992
    vertex 33.21208189797066 15.175379492169114 4.599999999999997
    vertex 34.29739619500933 14.72582759089828 4.599999999999997
  endloop
endfacet
facet normal 0.0 0.0 1.0
  outer loop
    vertex 33.486253235367236 17.516768326672445 4.599999999999992
    vertex 34.29739619500933 14.72582759089828 4.599999999999997
    vertex 34.004020188333605 17.119471770177718 4.599999999999992
  endloop
endfacet
facet normal 0.0 0.0 1.0
  outer loop
    vertex 34.004020188333605 17.119471770177718 4.599999999999992
    vertex 34.29739619500933 14.72582759089828 4.599999999999997
    vertex 34.6069725755773 16.86972071391614 4.599999999999992
  endloop
endfacet
facet normal 0.0 0.0 1.0
  outer loop
    vertex 34.6069725755773 16.86972071391614 4.599999999999992
    vertex 34.29739619500933 14.72582759089828 4.599999999999997
    vertex 35.46208189797066 14.572493809199086 4.599999999999997
  endloop
endfacet
facet normal 0.0 0.0 1.0
  outer loop
    vertex 34.6069725755773 16.86972071391614 4.599999999999992
    vertex 35.46208189797066 14.572493809199086 4.599999999999997
    vertex 35.254020188333605 16.784535279638813 4.599999999999992
  endloop
endfacet
facet normal 0.0 0.0 1.0
  outer loop
    vertex 35.254020188333605 16.784535279638813 4.599999999999992
    vertex 35.46208189797066 14.572493809199086 4.599999999999997
    vertex 35.9010678010899 16.86972071391614 4.599999999999992
  endloop
endfacet
facet normal 0.0 0.0 1.0
  outer loop
    vertex 35.9010678010899 16.86972071391614 4.599999999999992
    vertex 35.46208189797066 14.572493809199086 4.599999999999997
    vertex 36.62676760093201 14.72582759089828 4.599999999999997
  endloop
endfacet
facet normal 0.0 0.0 1.0
  outer loop
    vertex 35.9010678010899 16.86972071391614 4.599999999999992
    vertex 36.62676760093201 14.72582759089828 4.599999999999997
    vertex 36.504020188333605 17.119471770177718 4.599999999999992
  endloop
endfacet
facet normal 0.0 0.0 1.0
  outer loop
    vertex 36.504020188333605 17.119471770177718 4.599999999999992
    vertex 36.62676760093201 14.72582759089828 4.599999999999997
    vertex 37.021787141299974 17.516768326672445 4.599999999999992
  endloop
endfacet
facet normal 0.0 0.0 1.0
  outer loop
    vertex 37.021787141299974 17.516768326672445 4.599999999999992
    vertex 36.62676760093201 14.72582759089828 4.599999999999997
    vertex 37.71208189797067 15.175379492169114 4.599999999999997
  endloop
endfacet
facet normal 0.0 0.0 1.0
  outer loop
    vertex 37.021787141299974 17.516768326672445 4.599999999999992
    vertex 37.71208189797067 15.175379492169114 4.599999999999997
    vertex 37.4190836977947 18.034535279638813 4.599999999999992
  endloop
endfacet
facet normal 0.0 0.0 1.0
  outer loop
    vertex 37.4190836977947 18.034535279638813 4.599999999999992
    vertex 37.71208189797067 15.175379492169114 4.599999999999997
    vertex 37.66883475405627 18.637487666882514 4.599999999999992
  endloop
endfacet
facet normal 0.0 0.0 1.0
  outer loop
    vertex 37.66883475405627 18.637487666882514 4.599999999999992
    vertex 37.71208189797067 15.175379492169114 4.599999999999997
    vertex 37.754020188333605 19.284535279638813 4.599999999999992
  endloop
endfacet
facet normal 0.0 0.0 1.0
  outer loop
    vertex 37.754020188333605 19.284535279638813 4.599999999999992
    vertex 37.71208189797067 15.175379492169114 4.599999999999997
    vertex 38.64406241331013 15.890513293859623 4.599999999999997
  endloop
endfacet
facet normal 0.0 0.0 1.0
  outer loop
    vertex 32.754020188333605 19.284535279638813 4.599999999999992
    vertex 33.21208189797066 22.969608126229062 4.599999999999997
    vertex 32.2801013826312 22.25447432453855 4.599999999999997
  endloop
endfacet
facet normal 0.0 0.0 1.0
  outer loop
    vertex 33.21208189797066 22.969608126229062 4.599999999999997
    vertex 32.754020188333605 19.284535279638813 4.599999999999992
    vertex 32.839205622610926 19.931582892395117 4.599999999999992
  endloop
endfacet
facet normal 0.0 0.0 1.0
  outer loop
    vertex 33.21208189797066 22.969608126229062 4.599999999999997
    vertex 32.839205622610926 19.931582892395117 4.599999999999992
    vertex 33.088956678872506 20.534535279638813 4.599999999999992
  endloop
endfacet
facet normal 0.0 0.0 1.0
  outer loop
    vertex 33.21208189797066 22.969608126229062 4.599999999999997
    vertex 33.088956678872506 20.534535279638813 4.599999999999992
    vertex 33.486253235367236 21.052302232605182 4.599999999999992
  endloop
endfacet
facet normal 0.0 0.0 1.0
  outer loop
    vertex 33.21208189797066 22.969608126229062 4.599999999999997
    vertex 33.486253235367236 21.052302232605182 4.599999999999992
    vertex 34.29739619500932 23.419160027499895 4.599999999999997
  endloop
endfacet
facet normal 0.0 0.0 1.0
  outer loop
    vertex 34.29739619500932 23.419160027499895 4.599999999999997
    vertex 33.486253235367236 21.052302232605182 4.599999999999992
    vertex 34.0040201883336 21.449598789099912 4.599999999999992
  endloop
endfacet
facet normal 0.0 0.0 1.0
  outer loop
    vertex 34.29739619500932 23.419160027499895 4.599999999999997
    vertex 34.0040201883336 21.449598789099912 4.599999999999992
    vertex 34.606972575577295 21.699349845361485 4.599999999999992
  endloop
endfacet
facet normal 0.0 0.0 1.0
  outer loop
    vertex 34.29739619500932 23.419160027499895 4.599999999999997
    vertex 34.606972575577295 21.699349845361485 4.599999999999992
    vertex 35.46208189797066 23.572493809199088 4.599999999999997
  endloop
endfacet
facet normal 0.0 0.0 1.0
  outer loop
    vertex 35.46208189797066 23.572493809199088 4.599999999999997
    vertex 34.606972575577295 21.699349845361485 4.599999999999992
    vertex 35.254020188333605 21.784535279638817 4.599999999999992
  endloop
endfacet
facet normal 0.0 0.0 1.0
  outer loop
    vertex 35.46208189797066 23.572493809199088 4.599999999999997
    vertex 35.254020188333605 21.784535279638817 4.599999999999992
    vertex 35.9010678010899 21.699349845361485 4.599999999999992
  endloop
endfacet
facet normal 0.0 0.0 1.0
  outer loop
    vertex 35.46208189797066 23.572493809199088 4.599999999999997
    vertex 35.9010678010899 21.699349845361485 4.599999999999992
    vertex 36.626767600932006 23.419160027499895 4.599999999999997
  endloop
endfacet
facet normal 0.0 0.0 1.0
  outer loop
    vertex 36.626767600932006 23.419160027499895 4.599999999999997
    vertex 35.9010678010899 21.699349845361485 4.599999999999992
    vertex 36.5040201883336 21.449598789099912 4.599999999999992
  endloop
endfacet
facet normal 0.0 0.0 1.0
  outer loop
    vertex 36.626767600932006 23.419160027499895 4.599999999999997
    vertex 36.5040201883336 21.449598789099912 4.599999999999992
    vertex 37.021787141299974 21.052302232605186 4.599999999999992
  endloop
endfacet
facet normal 0.0 0.0 1.0
  outer loop
    vertex 36.626767600932006 23.419160027499895 4.599999999999997
    vertex 37.021787141299974 21.052302232605186 4.599999999999992
    vertex 37.71208189797066 22.969608126229062 4.599999999999997
  endloop
endfacet
facet normal 0.0 0.0 1.0
  outer loop
    vertex 37.71208189797066 22.969608126229062 4.599999999999997
    vertex 37.021787141299974 21.052302232605186 4.599999999999992
    vertex 37.4190836977947 20.534535279638813 4.599999999999992
  endloop
endfacet
facet normal 0.0 0.0 1.0
  outer loop
    vertex 37.71208189797066 22.969608126229062 4.599999999999997
    vertex 37.4190836977947 20.534535279638813 4.599999999999992
    vertex 37.66883475405627 19.931582892395117 4.599999999999992
  endloop
endfacet
facet normal 0.0 0.0 1.0
  outer loop
    vertex 37.71208189797066 22.969608126229062 4.599999999999997
    vertex 37.66883475405627 19.931582892395117 4.599999999999992
    vertex 37.754020188333605 19.284535279638813 4.599999999999992
  endloop
endfacet
facet normal 0.0 0.0 1.0
  outer loop
    vertex 37.71208189797066 22.969608126229062 4.599999999999997
    vertex 37.754020188333605 19.284535279638813 4.599999999999992
    vertex 38.64406241331013 22.254474324538553 4.599999999999997
  endloop
endfacet
facet normal 0.0 0.0 1.0
  outer loop
    vertex 38.64406241331013 22.254474324538553 4.599999999999997
    vertex 37.754020188333605 19.284535279638813 4.599999999999992
    vertex 38.64406241331013 15.890513293859623 4.599999999999997
  endloop
endfacet
facet normal 0.0 0.0 1.0
  outer loop
    vertex 38.64406241331013 22.254474324538553 4.599999999999997
    vertex 38.64406241331013 15.890513293859623 4.599999999999997
    vertex 39.35919621500064 16.822493809199088 4.599999999999997
  endloop
endfacet
facet normal 0.0 0.0 1.0
  outer loop
    vertex 38.64406241331013 22.254474324538553 4.599999999999997
    vertex 39.35919621500064 16.822493809199088 4.599999999999997
    vertex 39.35919621500064 21.322493809199088 4.599999999999997
  endloop
endfacet
facet normal 0.0 0.0 1.0
  outer loop
    vertex 39.35919621500064 21.322493809199088 4.599999999999997
    vertex 39.35919621500064 16.822493809199088 4.599999999999997
    vertex 39.808748116271474 17.90780810623774 4.599999999999997
  endloop
endfacet
facet normal 0.0 0.0 1.0
  outer loop
    vertex 39.35919621500064 21.322493809199088 4.599999999999997
    vertex 39.808748116271474 17.90780810623774 4.599999999999997
    vertex 39.808748116271474 20.237179512160434 4.599999999999997
  endloop
endfacet
facet normal 0.0 0.0 1.0
  outer loop
    vertex 39.808748116271474 20.237179512160434 4.599999999999997
    vertex 39.808748116271474 17.90780810623774 4.599999999999997
    vertex 39.96208189797066 19.072493809199088 4.599999999999997
  endloop
endfacet
facet normal -1.0 0.0 0.0
  outer loop
    vertex 109.0 24.0 10.6
    vertex 109.0 2.000000000000019 1.5999999999999999
    vertex 109.0 1.9999999999999996 10.6
  endloop
endfacet
facet normal -1.0 0.0 0.0
  outer loop
    vertex 109.0 2.000000000000019 1.5999999999999999
    vertex 109.0 24.0 10.6
    vertex 109.0 10.008747085543485 4.299999999999998
  endloop
endfacet
facet normal -1.0 0.0 0.0
  outer loop
    vertex 109.0 10.008747085543485 4.299999999999998
    vertex 109.0 24.0 10.6
    vertex 109.0 17.20874708554348 4.299999999999998
  endloop
endfacet
facet normal -1.0 0.0 0.0
  outer loop
    vertex 109.0 17.20874708554348 4.299999999999998
    vertex 109.0 24.0 10.6
    vertex 109.0 17.20874708554348 1.5999999999999999
  endloop
endfacet
facet normal -1.0 0.0 0.0
  outer loop
    vertex 109.0 17.20874708554348 1.5999999999999999
    vertex 109.0 24.0 10.6
    vertex 109.0 24.0 1.5999999999999999
  endloop
endfacet
facet normal -1.0 0.0 0.0
  outer loop
    vertex 109.0 10.008747085543485 1.5999999999999999
    vertex 109.0 2.000000000000019 1.5999999999999999
    vertex 109.0 10.008747085543485 4.299999999999998
  endloop
endfacet
facet normal 0.0 0.0 -1.0
  outer loop
    vertex 111.0 25.999999999999996 0.0
    vertex 0.0 0.0 0.0
    vertex 0.0 25.999999999999996 0.0
  endloop
endfacet
facet normal 0.0 0.0 -1.0
  outer loop
    vertex 0.0 0.0 0.0
    vertex 111.0 25.999999999999996 0.0
    vertex 111.0 0.0 0.0
  endloop
endfacet
facet normal 1.0 -0.0 -0.0
  outer loop
    vertex 111.0 0.0 0.0
    vertex 111.0 10.008747085543485 1.5999999999999999
    vertex 111.0 0.0 10.6
  endloop
endfacet
facet normal 1.0 -0.0 -0.0
  outer loop
    vertex 111.0 10.008747085543485 1.5999999999999999
    vertex 111.0 0.0 0.0
    vertex 111.0 25.999999999999996 0.0
  endloop
endfacet
facet normal 1.0 -0.0 -0.0
  outer loop
    vertex 111.0 10.008747085543485 1.5999999999999999
    vertex 111.0 25.999999999999996 0.0
    vertex 111.0 17.20874708554348 1.5999999999999999
  endloop
endfacet
facet normal 1.0 -0.0 -0.0
  outer loop
    vertex 111.0 17.20874708554348 1.5999999999999999
    vertex 111.0 25.999999999999996 0.0
    vertex 111.0 17.20874708554348 4.299999999999998
  endloop
endfacet
facet normal 1.0 -0.0 -0.0
  outer loop
    vertex 111.0 0.0 10.6
    vertex 111.0 10.008747085543485 4.299999999999998
    vertex 111.0 25.999999999999996 10.6
  endloop
endfacet
facet normal 1.0 -0.0 -0.0
  outer loop
    vertex 111.0 10.008747085543485 4.299999999999998
    vertex 111.0 0.0 10.6
    vertex 111.0 10.008747085543485 1.5999999999999999
  endloop
endfacet
facet normal 1.0 -0.0 -0.0
  outer loop
    vertex 111.0 25.999999999999996 10.6
    vertex 111.0 10.008747085543485 4.299999999999998
    vertex 111.0 17.20874708554348 4.299999999999998
  endloop
endfacet
facet normal 1.0 -0.0 -0.0
  outer loop
    vertex 111.0 25.999999999999996 10.6
    vertex 111.0 17.20874708554348 4.299999999999998
    vertex 111.0 25.999999999999996 0.0
  endloop
endfacet
facet normal -0.0 -0.0 1.0
  outer loop
    vertex 1.9999999999999998 2.000000000000019 1.5999999999999999
    vertex 34.29739619500933 14.72582759089828 1.599999999999997
    vertex 1.9999999999999998 24.0 1.5999999999999999
  endloop
endfacet
facet normal -0.0 -0.0 1.0
  outer loop
    vertex 34.29739619500933 14.72582759089828 1.599999999999997
    vertex 1.9999999999999998 2.000000000000019 1.5999999999999999
    vertex 109.0 2.000000000000019 1.5999999999999999
  endloop
endfacet
facet normal -0.0 -0.0 1.0
  outer loop
    vertex 1.9999999999999998 24.0 1.5999999999999999
    vertex 34.29739619500933 14.72582759089828 1.599999999999997
    vertex 33.21208189797066 15.175379492169114 1.599999999999997
  endloop
endfacet
facet normal -0.0 -0.0 1.0
  outer loop
    vertex 1.9999999999999998 24.0 1.5999999999999999
    vertex 33.21208189797066 15.175379492169114 1.599999999999997
    vertex 32.2801013826312 15.890513293859623 1.599999999999997
  endloop
endfacet
facet normal -0.0 -0.0 1.0
  outer loop
    vertex 1.9999999999999998 24.0 1.5999999999999999
    vertex 32.2801013826312 15.890513293859623 1.599999999999997
    vertex 31.564967580940692 16.822493809199084 1.599999999999997
  endloop
endfacet
facet normal -0.0 -0.0 1.0
  outer loop
    vertex 1.9999999999999998 24.0 1.5999999999999999
    vertex 31.564967580940692 16.822493809199084 1.599999999999997
    vertex 31.11541567966986 17.90780810623774 1.599999999999997
  endloop
endfacet
facet normal -0.0 -0.0 1.0
  outer loop
    vertex 1.9999999999999998 24.0 1.5999999999999999
    vertex 31.11541567966986 17.90780810623774 1.599999999999997
    vertex 30.96208189797067 19.072493809199088 1.599999999999997
  endloop
endfacet
facet normal -0.0 -0.0 1.0
  outer loop
    vertex 34.29739619500933 14.72582759089828 1.599999999999997
    vertex 109.0 2.000000000000019 1.5999999999999999
    vertex 35.46208189797066 14.572493809199086 1.599999999999997
  endloop
endfacet
facet normal -0.0 -0.0 1.0
  outer loop
    vertex 35.46208189797066 14.572493809199086 1.599999999999997
    vertex 109.0 2.000000000000019 1.5999999999999999
    vertex 36.62676760093201 14.72582759089828 1.599999999999997
  endloop
endfacet
facet normal -0.0 -0.0 1.0
  outer loop
    vertex 36.62676760093201 14.72582759089828 1.599999999999997
    vertex 109.0 2.000000000000019 1.5999999999999999
    vertex 37.71208189797067 15.175379492169114 1.599999999999997
  endloop
endfacet
facet normal -0.0 -0.0 1.0
  outer loop
    vertex 37.71208189797067 15.175379492169114 1.599999999999997
    vertex 109.0 2.000000000000019 1.5999999999999999
    vertex 38.64406241331013 15.890513293859623 1.599999999999997
  endloop
endfacet
facet normal -0.0 -0.0 1.0
  outer loop
    vertex 38.64406241331013 15.890513293859623 1.599999999999997
    vertex 109.0 2.000000000000019 1.5999999999999999
    vertex 39.35919621500064 16.822493809199088 1.599999999999997
  endloop
endfacet
facet normal -0.0 -0.0 1.0
  outer loop
    vertex 39.35919621500064 16.822493809199088 1.599999999999997
    vertex 109.0 2.000000000000019 1.5999999999999999
    vertex 39.808748116271474 17.90780810623774 1.599999999999997
  endloop
endfacet
facet normal -0.0 -0.0 1.0
  outer loop
    vertex 39.808748116271474 17.90780810623774 1.599999999999997
    vertex 109.0 2.000000000000019 1.5999999999999999
    vertex 39.96208189797066 19.072493809199088 1.599999999999997
  endloop
endfacet
facet normal -0.0 -0.0 1.0
  outer loop
    vertex 111.0 10.008747085543485 1.5999999999999999
    vertex 109.0 17.20874708554348 1.5999999999999999
    vertex 109.0 10.008747085543485 1.5999999999999999
  endloop
endfacet
facet normal -0.0 -0.0 1.0
  outer loop
    vertex 109.0 17.20874708554348 1.5999999999999999
    vertex 111.0 10.008747085543485 1.5999999999999999
    vertex 111.0 17.20874708554348 1.5999999999999999
  endloop
endfacet
facet normal -0.0 -0.0 1.0
  outer loop
    vertex 1.9999999999999998 24.0 1.5999999999999999
    vertex 35.46208189797066 23.572493809199088 1.599999999999997
    vertex 109.0 24.0 1.5999999999999999
  endloop
endfacet
facet normal -0.0 -0.0 1.0
  outer loop
    vertex 35.46208189797066 23.572493809199088 1.599999999999997
    vertex 1.9999999999999998 24.0 1.5999999999999999
    vertex 34.29739619500932 23.419160027499895 1.599999999999997
  endloop
endfacet
facet normal -0.0 -0.0 1.0
  outer loop
    vertex 34.29739619500932 23.419160027499895 1.599999999999997
    vertex 1.9999999999999998 24.0 1.5999999999999999
    vertex 33.21208189797066 22.969608126229062 1.599999999999997
  endloop
endfacet
facet normal -0.0 -0.0 1.0
  outer loop
    vertex 33.21208189797066 22.969608126229062 1.599999999999997
    vertex 1.9999999999999998 24.0 1.5999999999999999
    vertex 32.2801013826312 22.25447432453855 1.599999999999997
  endloop
endfacet
facet normal -0.0 -0.0 1.0
  outer loop
    vertex 32.2801013826312 22.25447432453855 1.599999999999997
    vertex 1.9999999999999998 24.0 1.5999999999999999
    vertex 31.564967580940692 21.322493809199084 1.599999999999997
  endloop
endfacet
facet normal -0.0 -0.0 1.0
  outer loop
    vertex 31.564967580940692 21.322493809199084 1.599999999999997
    vertex 1.9999999999999998 24.0 1.5999999999999999
    vertex 31.11541567966986 20.237179512160427 1.599999999999997
  endloop
endfacet
facet normal -0.0 -0.0 1.0
  outer loop
    vertex 31.11541567966986 20.237179512160427 1.599999999999997
    vertex 1.9999999999999998 24.0 1.5999999999999999
    vertex 30.96208189797067 19.072493809199088 1.599999999999997
  endloop
endfacet
facet normal -0.0 -0.0 1.0
  outer loop
    vertex 109.0 24.0 1.5999999999999999
    vertex 35.46208189797066 23.572493809199088 1.599999999999997
    vertex 36.626767600932006 23.419160027499895 1.599999999999997
  endloop
endfacet
facet normal -0.0 -0.0 1.0
  outer loop
    vertex 109.0 24.0 1.5999999999999999
    vertex 36.626767600932006 23.419160027499895 1.599999999999997
    vertex 37.71208189797066 22.969608126229062 1.599999999999997
  endloop
endfacet
facet normal -0.0 -0.0 1.0
  outer loop
    vertex 109.0 24.0 1.5999999999999999
    vertex 37.71208189797066 22.969608126229062 1.599999999999997
    vertex 38.64406241331013 22.254474324538553 1.599999999999997
  endloop
endfacet
facet normal -0.0 -0.0 1.0
  outer loop
    vertex 109.0 24.0 1.5999999999999999
    vertex 38.64406241331013 22.254474324538553 1.599999999999997
    vertex 39.35919621500064 21.322493809199088 1.599999999999997
  endloop
endfacet
facet normal -0.0 -0.0 1.0
  outer loop
    vertex 109.0 24.0 1.5999999999999999
    vertex 39.35919621500064 21.322493809199088 1.599999999999997
    vertex 39.808748116271474 20.237179512160434 1.599999999999997
  endloop
endfacet
facet normal -0.0 -0.0 1.0
  outer loop
    vertex 109.0 24.0 1.5999999999999999
    vertex 39.808748116271474 20.237179512160434 1.599999999999997
    vertex 39.96208189797066 19.072493809199088 1.599999999999997
  endloop
endfacet
facet normal -0.0 -0.0 1.0
  outer loop
    vertex 109.0 24.0 1.5999999999999999
    vertex 39.96208189797066 19.072493809199088 1.599999999999997
    vertex 109.0 2.000000000000019 1.5999999999999999
  endloop
endfacet
facet normal -0.0 -0.0 1.0
  outer loop
    vertex 109.0 24.0 1.5999999999999999
    vertex 109.0 2.000000000000019 1.5999999999999999
    vertex 109.0 10.008747085543485 1.5999999999999999
  endloop
endfacet
facet normal -0.0 -0.0 1.0
  outer loop
    vertex 109.0 24.0 1.5999999999999999
    vertex 109.0 10.008747085543485 1.5999999999999999
    vertex 109.0 17.20874708554348 1.5999999999999999
  endloop
endfacet
facet normal 0.0 0.0 -1.0
  outer loop
    vertex 111.0 17.20874708554348 4.299999999999998
    vertex 109.0 10.008747085543485 4.299999999999998
    vertex 109.0 17.20874708554348 4.299999999999998
  endloop
endfacet
facet normal 0.0 0.0 -1.0
  outer loop
    vertex 109.0 10.008747085543485 4.299999999999998
    vertex 111.0 17.20874708554348 4.299999999999998
    vertex 111.0 10.008747085543485 4.299999999999998
  endloop
endfacet
facet normal 0.0 -1.0 0.0
  outer loop
    vertex 111.0 17.20874708554348 4.299999999999998
    vertex 109.0 17.20874708554348 1.5999999999999999
    vertex 111.0 17.20874708554348 1.5999999999999999
  endloop
endfacet
facet normal 0.0 -1.0 0.0
  outer loop
    vertex 109.0 17.20874708554348 1.5999999999999999
    vertex 111.0 17.20874708554348 4.299999999999998
    vertex 109.0 17.20874708554348 4.299999999999998
  endloop
endfacet
facet normal 0.0 1.0 0.0
  outer loop
    vertex 109.0 10.008747085543485 4.299999999999998
    vertex 111.0 10.008747085543485 1.5999999999999999
    vertex 109.0 10.008747085543485 1.5999999999999999
  endloop
endfacet
facet normal 0.0 1.0 0.0
  outer loop
    vertex 111.0 10.008747085543485 1.5999999999999999
    vertex 109.0 10.008747085543485 4.299999999999998
    vertex 111.0 10.008747085543485 4.299999999999998
  endloop
endfacet
facet normal 1.0 -0.0 -0.0
  outer loop
    vertex 1.9999999999999998 24.0 1.5999999999999999
    vertex 2.0000000000000004 11.294434661747509 6.800000000000003
    vertex 1.9999999999999998 2.000000000000019 1.5999999999999999
  endloop
endfacet
facet normal 1.0 -0.0 -0.0
  outer loop
    vertex 2.0000000000000004 11.294434661747509 6.800000000000003
    vertex 1.9999999999999998 24.0 1.5999999999999999
    vertex 2.0000000000000013 16.194434661747508 6.800000000000003
  endloop
endfacet
facet normal 1.0 -0.0 -0.0
  outer loop
    vertex 2.0000000000000013 16.194434661747508 6.800000000000003
    vertex 1.9999999999999998 24.0 1.5999999999999999
    vertex 2.0000000000000013 16.194434661747508 10.6
  endloop
endfacet
facet normal 1.0 -0.0 -0.0
  outer loop
    vertex 2.0000000000000013 16.194434661747508 10.6
    vertex 1.9999999999999998 24.0 1.5999999999999999
    vertex 1.9999999999999998 24.0 10.6
  endloop
endfacet
facet normal 1.0 -0.0 -0.0
  outer loop
    vertex 1.9999999999999998 2.000000000000019 1.5999999999999999
    vertex 2.0000000000000004 11.294434661747509 10.6
    vertex 1.9999999999999998 1.9999999999999991 10.6
  endloop
endfacet
facet normal 1.0 -0.0 -0.0
  outer loop
    vertex 2.0000000000000004 11.294434661747509 10.6
    vertex 1.9999999999999998 2.000000000000019 1.5999999999999999
    vertex 2.0000000000000004 11.294434661747509 6.800000000000003
  endloop
endfacet
facet normal -0.0 -0.0 1.0
  outer loop
    vertex 2.0000000000000013 16.194434661747508 10.6
    vertex 1.9999999999999998 24.0 10.6
    vertex 2.6789681584205022e-15 16.19443466174751 10.6
  endloop
endfacet
facet normal -0.0 -0.0 1.0
  outer loop
    vertex 0.0 0.0 10.6
    vertex 1.9999999999999998 1.9999999999999991 10.6
    vertex 1.4804824033376465e-15 11.294434661747509 10.6
  endloop
endfacet
facet normal -0.0 -0.0 1.0
  outer loop
    vertex 1.9999999999999998 1.9999999999999991 10.6
    vertex 0.0 0.0 10.6
    vertex 111.0 0.0 10.6
  endloop
endfacet
facet normal -0.0 -0.0 1.0
  outer loop
    vertex 1.9999999999999998 1.9999999999999991 10.6
    vertex 111.0 0.0 10.6
    vertex 109.0 1.9999999999999996 10.6
  endloop
endfacet
facet normal -0.0 -0.0 1.0
  outer loop
    vertex 109.0 1.9999999999999996 10.6
    vertex 111.0 0.0 10.6
    vertex 109.0 24.0 10.6
  endloop
endfacet
facet normal -0.0 -0.0 1.0
  outer loop
    vertex 0.0 25.999999999999996 10.6
    vertex 1.9999999999999998 24.0 10.6
    vertex 111.0 25.999999999999996 10.6
  endloop
endfacet
facet normal -0.0 -0.0 1.0
  outer loop
    vertex 1.9999999999999998 24.0 10.6
    vertex 0.0 25.999999999999996 10.6
    vertex 2.6789681584205022e-15 16.19443466174751 10.6
  endloop
endfacet
facet normal -0.0 -0.0 1.0
  outer loop
    vertex 111.0 25.999999999999996 10.6
    vertex 1.9999999999999998 24.0 10.6
    vertex 109.0 24.0 10.6
  endloop
endfacet
facet normal -0.0 -0.0 1.0
  outer loop
    vertex 111.0 25.999999999999996 10.6
    vertex 109.0 24.0 10.6
    vertex 111.0 0.0 10.6
  endloop
endfacet
facet normal -0.0 -0.0 1.0
  outer loop
    vertex 2.0000000000000004 11.294434661747509 10.6
    vertex 1.4804824033376465e-15 11.294434661747509 10.6
    vertex 1.9999999999999998 1.9999999999999991 10.6
  endloop
endfacet
facet normal -1.0 0.0 0.0
  outer loop
    vertex 0.0 25.999999999999996 10.6
    vertex 2.6789681584205022e-15 16.19443466174751 6.800000000000003
    vertex 2.6789681584205022e-15 16.19443466174751 10.6
  endloop
endfacet
facet normal -1.0 0.0 0.0
  outer loop
    vertex 1.4804824033376465e-15 11.294434661747509 10.6
    vertex 0.0 0.0 0.0
    vertex 0.0 0.0 10.6
  endloop
endfacet
facet normal -1.0 0.0 0.0
  outer loop
    vertex 0.0 0.0 0.0
    vertex 1.4804824033376465e-15 11.294434661747509 10.6
    vertex 1.4804824033376465e-15 11.29443466174751 6.800000000000003
  endloop
endfacet
facet normal -1.0 0.0 0.0
  outer loop
    vertex 0.0 0.0 0.0
    vertex 1.4804824033376465e-15 11.29443466174751 6.800000000000003
    vertex 0.0 25.999999999999996 0.0
  endloop
endfacet
facet normal -1.0 0.0 0.0
  outer loop
    vertex 0.0 25.999999999999996 0.0
    vertex 1.4804824033376465e-15 11.29443466174751 6.800000000000003
    vertex 2.6789681584205022e-15 16.19443466174751 6.800000000000003
  endloop
endfacet
facet normal -1.0 0.0 0.0
  outer loop
    vertex 0.0 25.999999999999996 0.0
    vertex 2.6789681584205022e-15 16.19443466174751 6.800000000000003
    vertex 0.0 25.999999999999996 10.6
  endloop
endfacet
facet normal -1.409983241273949e-15 -1.0 0.0
  outer loop
    vertex 2.0000000000000013 16.194434661747508 10.6
    vertex 2.6789681584205022e-15 16.19443466174751 6.800000000000003
    vertex 2.0000000000000013 16.194434661747508 6.800000000000003
  endloop
endfacet
facet normal -1.409983241273949e-15 -1.0 0.0
  outer loop
    vertex 2.6789681584205022e-15 16.19443466174751 6.800000000000003
    vertex 2.0000000000000013 16.194434661747508 10.6
    vertex 2.6789681584205022e-15 16.19443466174751 10.6
  endloop
endfacet
facet normal 0.0 0.0 1.0
  outer loop
    vertex 2.0000000000000004 11.294434661747509 6.800000000000003
    vertex 2.6789681584205022e-15 16.19443466174751 6.800000000000003
    vertex 1.4804824033376465e-15 11.29443466174751 6.800000000000003
  endloop
endfacet
facet normal 0.0 0.0 1.0
  outer loop
    vertex 2.6789681584205022e-15 16.19443466174751 6.800000000000003
    vertex 2.0000000000000004 11.294434661747509 6.800000000000003
    vertex 2.0000000000000013 16.194434661747508 6.800000000000003
  endloop
endfacet
facet normal 7.049916206369745e-16 1.0 1.007130886624249e-15
  outer loop
    vertex 1.4804824033376465e-15 11.294434661747509 10.6
    vertex 2.0000000000000004 11.294434661747509 6.800000000000003
    vertex 1.4804824033376465e-15 11.29443466174751 6.800000000000003
  endloop
endfacet
facet normal 7.049916206369745e-16 1.0 1.007130886624249e-15
  outer loop
    vertex 2.0000000000000004 11.294434661747509 6.800000000000003
    vertex 1.4804824033376465e-15 11.294434661747509 10.6
    vertex 2.0000000000000004 11.294434661747509 10.6
  endloop
endfacet
endsolid selfie-sensor-bottom
