solid selfie-sensor-top
facet normal 0.0 0.0 -1.0
  outer loop
    vertex 0.0 26.0 0.0
    vertex 2.0 24.0 0.0
    vertex 0.0 0.0 0.0
  endloop
endfacet
facet normal 0.0 0.0 -1.0
  outer loop
    vertex 2.0 24.0 0.0
    vertex 0.0 26.0 0.0
    vertex 111.0 26.0 0.0
  endloop
endfacet
facet normal 0.0 0.0 -1.0
  outer loop
    vertex 2.0 24.0 0.0
    vertex 111.0 26.0 0.0
    vertex 109.0 24.0 0.0
  endloop
endfacet
facet normal 0.0 0.0 -1.0
  outer loop
    vertex 109.0 24.0 0.0
    vertex 111.0 26.0 0.0
    vertex 109.0 2.0 0.0
  endloop
endfacet
facet normal 0.0 0.0 -1.0
  outer loop
    vertex 0.0 0.0 0.0
    vertex 2.0 2.0 0.0
    vertex 111.0 0.0 0.0
  endloop
endfacet
facet normal 0.0 0.0 -1.0
  outer loop
    vertex 2.0 2.0 0.0
    vertex 0.0 0.0 0.0
    vertex 2.0 24.0 0.0
  endloop
endfacet
facet normal 0.0 0.0 -1.0
  outer loop
    vertex 111.0 0.0 0.0
    vertex 2.0 2.0 0.0
    vertex 109.0 2.0 0.0
  endloop
endfacet
facet normal 0.0 0.0 -1.0
  outer loop
    vertex 111.0 0.0 0.0
    vertex 109.0 2.0 0.0
    vertex 111.0 26.0 0.0
  endloop
endfacet
facet normal 0.0 0.0 1.0
  outer loop
    vertex 0.0 0.0 1.6
    vertex 2.0 2.0 1.6
    vertex 0.0 26.0 1.6
  endloop
endfacet
facet normal 0.0 0.0 1.0
  outer loop
    vertex 2.0 2.0 1.6
    vertex 0.0 0.0 1.6
    vertex 111.0 0.0 1.6
  endloop
endfacet
facet normal 0.0 0.0 1.0
  outer loop
    vertex 2.0 2.0 1.6
    vertex 111.0 0.0 1.6
    vertex 109.0 2.0 1.6
  endloop
endfacet
facet normal 0.0 0.0 1.0
  outer loop
    vertex 109.0 2.0 1.6
    vertex 111.0 0.0 1.6
    vertex 109.0 24.0 1.6
  endloop
endfacet
facet normal 0.0 0.0 1.0
  outer loop
    vertex 0.0 26.0 1.6
    vertex 2.0 24.0 1.6
    vertex 111.0 26.0 1.6
  endloop
endfacet
facet normal 0.0 0.0 1.0
  outer loop
    vertex 2.0 24.0 1.6
    vertex 0.0 26.0 1.6
    vertex 2.0 2.0 1.6
  endloop
endfacet
facet normal 0.0 0.0 1.0
  outer loop
    vertex 111.0 26.0 1.6
    vertex 2.0 24.0 1.6
    vertex 109.0 24.0 1.6
  endloop
endfacet
facet normal 0.0 0.0 1.0
  outer loop
    vertex 111.0 26.0 1.6
    vertex 109.0 24.0 1.6
    vertex 111.0 0.0 1.6
  endloop
endfacet
facet normal 1.0 0.0 0.0
  outer loop
    vertex 111.0 26.0 0.0
    vertex 111.0 0.0 1.6
    vertex 111.0 0.0 0.0
  endloop
endfacet
facet normal 1.0 0.0 0.0
  outer loop
    vertex 111.0 0.0 1.6
    vertex 111.0 26.0 0.0
    vertex 111.0 26.0 1.6
  endloop
endfacet
facet normal -0.0 -1.0 -0.0
  outer loop
    vertex 111.0 0.0 1.6
    vertex 0.0 0.0 0.0
    vertex 111.0 0.0 0.0
  endloop
endfacet
facet normal -0.0 -1.0 -0.0
  outer loop
    vertex 0.0 0.0 0.0
    vertex 111.0 0.0 1.6
    vertex 0.0 0.0 1.6
  endloop
endfacet
facet normal -1.0 0.0 0.0
  outer loop
    vertex 0.0 26.0 1.6
    vertex 0.0 0.0 0.0
    vertex 0.0 0.0 1.6
  endloop
endfacet
facet normal -1.0 0.0 0.0
  outer loop
    vertex 0.0 0.0 0.0
    vertex 0.0 26.0 1.6
    vertex 0.0 26.0 0.0
  endloop
endfacet
facet normal -0.0 1.0 0.0
  outer loop
    vertex 0.0 26.0 1.6
    vertex 111.0 26.0 0.0
    vertex 0.0 26.0 0.0
  endloop
endfacet
facet normal -0.0 1.0 0.0
  outer loop
    vertex 111.0 26.0 0.0
    vertex 0.0 26.0 1.6
    vertex 111.0 26.0 1.6
  endloop
endfacet
facet normal -1.0 0.0 -0.0
  outer loop
    vertex 109.0 24.0 1.6
    vertex 109.0 2.0 0.0
    vertex 109.0 2.0 1.6
  endloop
endfacet
facet normal -1.0 0.0 -0.0
  outer loop
    vertex 109.0 2.0 0.0
    vertex 109.0 24.0 1.6
    vertex 109.0 24.0 0.0
  endloop
endfacet
facet normal -0.0 -1.0 -0.0
  outer loop
    vertex 109.0 24.0 1.6
    vertex 2.0 24.0 0.0
    vertex 109.0 24.0 0.0
  endloop
endfacet
facet normal -0.0 -1.0 -0.0
  outer loop
    vertex 2.0 24.0 0.0
    vertex 109.0 24.0 1.6
    vertex 2.0 24.0 1.6
  endloop
endfacet
facet normal 1.0 0.0 0.0
  outer loop
    vertex 2.0 24.0 0.0
    vertex 2.0 2.0 1.6
    vertex 2.0 2.0 0.0
  endloop
endfacet
facet normal 1.0 0.0 0.0
  outer loop
    vertex 2.0 2.0 1.6
    vertex 2.0 24.0 0.0
    vertex 2.0 24.0 1.6
  endloop
endfacet
facet normal -3.2943533674625e-018 1.0 -0.0
  outer loop
    vertex 2.0 2.0 1.6
    vertex 109.0 2.0 0.0
    vertex 2.0 2.0 0.0
  endloop
endfacet
facet normal -3.2943533674625e-018 1.0 -0.0
  outer loop
    vertex 109.0 2.0 0.0
    vertex 2.0 2.0 1.6
    vertex 109.0 2.0 1.6
  endloop
endfacet
endsolid selfie-sensor-top
